<svg viewBox="400 0 400 63" width="400" xmlns="http://www.w3.org/2000/svg" role="img" aria-label="Telegram">
  <defs>
    <filter id="fB" x="-60%" y="-60%" width="220%" height="220%"><feGaussianBlur stdDeviation="54"/></filter>
    <clipPath id="cF"><rect x="400" y="0" width="400" height="63" rx="12"/></clipPath>
    <g id="bl">
      <circle r="165" fill="#FF592B">
        <animate attributeName="cx" values="87;219;102;12;136;-14;-15;87" dur="31s" repeatCount="indefinite" calcMode="spline" keyTimes="0.0000;0.1429;0.2857;0.4286;0.5714;0.7143;0.8571;1.0000" keySplines="0.42 0 0.58 1;0.42 0 0.58 1;0.42 0 0.58 1;0.42 0 0.58 1;0.42 0 0.58 1;0.42 0 0.58 1;0.42 0 0.58 1"/>
        <animate attributeName="cy" values="55;39;60;47;95;12;98;55" dur="39s" repeatCount="indefinite" calcMode="spline" keyTimes="0.0000;0.1429;0.2857;0.4286;0.5714;0.7143;0.8571;1.0000" keySplines="0.42 0 0.58 1;0.42 0 0.58 1;0.42 0 0.58 1;0.42 0 0.58 1;0.42 0 0.58 1;0.42 0 0.58 1;0.42 0 0.58 1"/>
        <animate attributeName="fill" values="#FF592B;#F16428;#FF592B" dur="27s" repeatCount="indefinite"/>
      </circle>
      <circle r="160" fill="#77159F">
        <animate attributeName="cx" values="101;219;167;139;-33;162;95;101" dur="43s" repeatCount="indefinite" calcMode="spline" keyTimes="0.0000;0.1429;0.2857;0.4286;0.5714;0.7143;0.8571;1.0000" keySplines="0.42 0 0.58 1;0.42 0 0.58 1;0.42 0 0.58 1;0.42 0 0.58 1;0.42 0 0.58 1;0.42 0 0.58 1;0.42 0 0.58 1"/>
        <animate attributeName="cy" values="97;9;80;-21;25;3;14;97" dur="33s" repeatCount="indefinite" calcMode="spline" keyTimes="0.0000;0.1429;0.2857;0.4286;0.5714;0.7143;0.8571;1.0000" keySplines="0.42 0 0.58 1;0.42 0 0.58 1;0.42 0 0.58 1;0.42 0 0.58 1;0.42 0 0.58 1;0.42 0 0.58 1;0.42 0 0.58 1"/>
        <animate attributeName="fill" values="#77159F;#38106B;#873AA8;#77159F" dur="31s" repeatCount="indefinite"/>
      </circle>
      <circle r="155" fill="#38106B">
        <animate attributeName="cx" values="612;596;446;415;246;261;162;612" dur="37s" repeatCount="indefinite" calcMode="spline" keyTimes="0.0000;0.1429;0.2857;0.4286;0.5714;0.7143;0.8571;1.0000" keySplines="0.42 0 0.58 1;0.42 0 0.58 1;0.42 0 0.58 1;0.42 0 0.58 1;0.42 0 0.58 1;0.42 0 0.58 1;0.42 0 0.58 1"/>
        <animate attributeName="cy" values="121;-26;32;-18;36;37;-25;121" dur="45s" repeatCount="indefinite" calcMode="spline" keyTimes="0.0000;0.1429;0.2857;0.4286;0.5714;0.7143;0.8571;1.0000" keySplines="0.42 0 0.58 1;0.42 0 0.58 1;0.42 0 0.58 1;0.42 0 0.58 1;0.42 0 0.58 1;0.42 0 0.58 1;0.42 0 0.58 1"/>
        <animate attributeName="fill" values="#38106B;#28649C;#77159F;#38106B" dur="29s" repeatCount="indefinite"/>
      </circle>
      <circle r="165" fill="#28649C">
        <animate attributeName="cx" values="751;733;794;737;708;751;639;751" dur="41s" repeatCount="indefinite" calcMode="spline" keyTimes="0.0000;0.1429;0.2857;0.4286;0.5714;0.7143;0.8571;1.0000" keySplines="0.42 0 0.58 1;0.42 0 0.58 1;0.42 0 0.58 1;0.42 0 0.58 1;0.42 0 0.58 1;0.42 0 0.58 1;0.42 0 0.58 1"/>
        <animate attributeName="cy" values="-24;103;48;23;-22;62;24;-24" dur="35s" repeatCount="indefinite" calcMode="spline" keyTimes="0.0000;0.1429;0.2857;0.4286;0.5714;0.7143;0.8571;1.0000" keySplines="0.42 0 0.58 1;0.42 0 0.58 1;0.42 0 0.58 1;0.42 0 0.58 1;0.42 0 0.58 1;0.42 0 0.58 1;0.42 0 0.58 1"/>
        <animate attributeName="fill" values="#28649C;#873AA8;#018AB8;#28649C" dur="33s" repeatCount="indefinite"/>
      </circle>
      <circle r="145" fill="#00EED0">
        <animate attributeName="cx" values="469;588;454;416;291;340;649;469" dur="47s" repeatCount="indefinite" calcMode="spline" keyTimes="0.0000;0.1429;0.2857;0.4286;0.5714;0.7143;0.8571;1.0000" keySplines="0.42 0 0.58 1;0.42 0 0.58 1;0.42 0 0.58 1;0.42 0 0.58 1;0.42 0 0.58 1;0.42 0 0.58 1;0.42 0 0.58 1"/>
        <animate attributeName="cy" values="19;9;18;126;36;19;16;19" dur="39s" repeatCount="indefinite" calcMode="spline" keyTimes="0.0000;0.1429;0.2857;0.4286;0.5714;0.7143;0.8571;1.0000" keySplines="0.42 0 0.58 1;0.42 0 0.58 1;0.42 0 0.58 1;0.42 0 0.58 1;0.42 0 0.58 1;0.42 0 0.58 1;0.42 0 0.58 1"/>
        <animate attributeName="fill" values="#00EED0;#018AB8;#28649C;#00EED0" dur="35s" repeatCount="indefinite"/>
      </circle>
      <circle r="150" fill="#F16428">
        <animate attributeName="cx" values="532;566;735;665;526;639;695;532" dur="39s" repeatCount="indefinite" calcMode="spline" keyTimes="0.0000;0.1429;0.2857;0.4286;0.5714;0.7143;0.8571;1.0000" keySplines="0.42 0 0.58 1;0.42 0 0.58 1;0.42 0 0.58 1;0.42 0 0.58 1;0.42 0 0.58 1;0.42 0 0.58 1;0.42 0 0.58 1"/>
        <animate attributeName="cy" values="78;39;95;45;34;105;88;78" dur="47s" repeatCount="indefinite" calcMode="spline" keyTimes="0.0000;0.1429;0.2857;0.4286;0.5714;0.7143;0.8571;1.0000" keySplines="0.42 0 0.58 1;0.42 0 0.58 1;0.42 0 0.58 1;0.42 0 0.58 1;0.42 0 0.58 1;0.42 0 0.58 1;0.42 0 0.58 1"/>
        <animate attributeName="fill" values="#F16428;#FF592B;#C28B5A;#F16428" dur="30s" repeatCount="indefinite"/>
      </circle>
    </g>
  </defs>
  <g clip-path="url(#cF)">
    <rect x="400" y="0" width="400" height="63" fill="#0a0a12"/>
    <g filter="url(#fB)" transform="translate(0,63) scale(1,-1)"><use href="#bl"/></g>
    <g transform="translate(587.0,18.5) scale(1.0833)">
      <path d="M11.944 0A12 12 0 0 0 0 12a12 12 0 0 0 12 12 12 12 0 0 0 12-12A12 12 0 0 0 12 0a12 12 0 0 0-.056 0zm4.962 7.224c.1-.002.321.023.465.14a.506.506 0 0 1 .171.325c.016.093.036.306.02.472-.18 1.898-.962 6.502-1.36 8.627-.168.9-.499 1.201-.82 1.23-.696.065-1.225-.46-1.9-.902-1.056-.693-1.653-1.124-2.678-1.8-1.185-.78-.417-1.21.258-1.91.177-.184 3.247-2.977 3.307-3.23.007-.032.014-.15-.056-.212s-.174-.041-.249-.024c-.106.024-1.793 1.14-5.061 3.345-.48.33-.913.49-1.302.48-.428-.008-1.252-.241-1.865-.44-.752-.245-1.349-.374-1.297-.789.027-.216.325-.437.893-.663 3.498-1.524 5.83-2.529 6.998-3.014 3.332-1.386 4.025-1.627 4.476-1.635z" fill="#ffffff" fill-opacity="0.95"/>
    </g>
  </g>
</svg>