<svg viewBox="408 0 46 46" width="46" height="46" xmlns="http://www.w3.org/2000/svg" role="img" aria-label="Bash">
  <defs>
    <filter id="b" x="-60%" y="-60%" width="220%" height="220%"><feGaussianBlur stdDeviation="54"/></filter>
    <mask id="m" maskUnits="userSpaceOnUse" x="408" y="0" width="46" height="46">
      <rect x="408" y="0" width="46" height="46" fill="black"/>
      <g transform="translate(408,0) scale(1.9167)"><path d="M21.038,4.9l-7.577-4.498C13.009,0.134,12.505,0,12,0c-0.505,0-1.009,0.134-1.462,0.403L2.961,4.9 C2.057,5.437,1.5,6.429,1.5,7.503v8.995c0,1.073,0.557,2.066,1.462,2.603l7.577,4.497C10.991,23.866,11.495,24,12,24 c0.505,0,1.009-0.134,1.461-0.402l7.577-4.497c0.904-0.537,1.462-1.529,1.462-2.603V7.503C22.5,6.429,21.943,5.437,21.038,4.9z M15.17,18.946l0.013,0.646c0.001,0.078-0.05,0.167-0.111,0.198l-0.383,0.22c-0.061,0.031-0.111-0.007-0.112-0.085L14.57,19.29 c-0.328,0.136-0.66,0.169-0.872,0.084c-0.04-0.016-0.057-0.075-0.041-0.142l0.139-0.584c0.011-0.046,0.036-0.092,0.069-0.121 c0.012-0.011,0.024-0.02,0.036-0.026c0.022-0.011,0.043-0.014,0.062-0.006c0.229,0.077,0.521,0.041,0.802-0.101 c0.357-0.181,0.596-0.545,0.592-0.907c-0.003-0.328-0.181-0.465-0.613-0.468c-0.55,0.001-1.064-0.107-1.072-0.917 c-0.007-0.667,0.34-1.361,0.889-1.8l-0.007-0.652c-0.001-0.08,0.048-0.168,0.111-0.2l0.37-0.236 c0.061-0.031,0.111,0.007,0.112,0.087l0.006,0.653c0.273-0.109,0.511-0.138,0.726-0.088c0.047,0.012,0.067,0.076,0.048,0.151 l-0.144,0.578c-0.011,0.044-0.036,0.088-0.065,0.116c-0.012,0.012-0.025,0.021-0.038,0.028c-0.019,0.01-0.038,0.013-0.057,0.009 c-0.098-0.022-0.332-0.073-0.699,0.113c-0.385,0.195-0.52,0.53-0.517,0.778c0.003,0.297,0.155,0.387,0.681,0.396 c0.7,0.012,1.003,0.318,1.01,1.023C16.105,17.747,15.736,18.491,15.17,18.946z M19.143,17.859c0,0.06-0.008,0.116-0.058,0.145 l-1.916,1.164c-0.05,0.029-0.09,0.004-0.09-0.056v-0.494c0-0.06,0.037-0.093,0.087-0.122l1.887-1.129 c0.05-0.029,0.09-0.004,0.09,0.056V17.859z M20.459,6.797l-7.168,4.427c-0.894,0.523-1.553,1.109-1.553,2.187v8.833 c0,0.645,0.26,1.063,0.66,1.184c-0.131,0.023-0.264,0.039-0.398,0.039c-0.42,0-0.833-0.114-1.197-0.33L3.226,18.64 c-0.741-0.44-1.201-1.261-1.201-2.142V7.503c0-0.881,0.46-1.702,1.201-2.142l7.577-4.498c0.363-0.216,0.777-0.33,1.197-0.33 c0.419,0,0.833,0.114,1.197,0.33l7.577,4.498c0.624,0.371,1.046,1.013,1.164,1.732C21.686,6.557,21.12,6.411,20.459,6.797z" fill="white"/></g>
    </mask>
    <g id="bl">
      <circle r="165" fill="#FF592B">
        <animate attributeName="cx" values="87;219;102;12;136;-14;-15;87" dur="31s" repeatCount="indefinite" calcMode="spline" keyTimes="0.0000;0.1429;0.2857;0.4286;0.5714;0.7143;0.8571;1.0000" keySplines="0.42 0 0.58 1;0.42 0 0.58 1;0.42 0 0.58 1;0.42 0 0.58 1;0.42 0 0.58 1;0.42 0 0.58 1;0.42 0 0.58 1"/>
        <animate attributeName="cy" values="55;39;60;47;95;12;98;55" dur="39s" repeatCount="indefinite" calcMode="spline" keyTimes="0.0000;0.1429;0.2857;0.4286;0.5714;0.7143;0.8571;1.0000" keySplines="0.42 0 0.58 1;0.42 0 0.58 1;0.42 0 0.58 1;0.42 0 0.58 1;0.42 0 0.58 1;0.42 0 0.58 1;0.42 0 0.58 1"/>
        <animate attributeName="fill" values="#FF592B;#F16428;#FF592B" dur="27s" repeatCount="indefinite"/>
      </circle>
      <circle r="160" fill="#77159F">
        <animate attributeName="cx" values="101;219;167;139;-33;162;95;101" dur="43s" repeatCount="indefinite" calcMode="spline" keyTimes="0.0000;0.1429;0.2857;0.4286;0.5714;0.7143;0.8571;1.0000" keySplines="0.42 0 0.58 1;0.42 0 0.58 1;0.42 0 0.58 1;0.42 0 0.58 1;0.42 0 0.58 1;0.42 0 0.58 1;0.42 0 0.58 1"/>
        <animate attributeName="cy" values="97;9;80;-21;25;3;14;97" dur="33s" repeatCount="indefinite" calcMode="spline" keyTimes="0.0000;0.1429;0.2857;0.4286;0.5714;0.7143;0.8571;1.0000" keySplines="0.42 0 0.58 1;0.42 0 0.58 1;0.42 0 0.58 1;0.42 0 0.58 1;0.42 0 0.58 1;0.42 0 0.58 1;0.42 0 0.58 1"/>
        <animate attributeName="fill" values="#77159F;#38106B;#873AA8;#77159F" dur="31s" repeatCount="indefinite"/>
      </circle>
      <circle r="155" fill="#38106B">
        <animate attributeName="cx" values="612;596;446;415;246;261;162;612" dur="37s" repeatCount="indefinite" calcMode="spline" keyTimes="0.0000;0.1429;0.2857;0.4286;0.5714;0.7143;0.8571;1.0000" keySplines="0.42 0 0.58 1;0.42 0 0.58 1;0.42 0 0.58 1;0.42 0 0.58 1;0.42 0 0.58 1;0.42 0 0.58 1;0.42 0 0.58 1"/>
        <animate attributeName="cy" values="121;-26;32;-18;36;37;-25;121" dur="45s" repeatCount="indefinite" calcMode="spline" keyTimes="0.0000;0.1429;0.2857;0.4286;0.5714;0.7143;0.8571;1.0000" keySplines="0.42 0 0.58 1;0.42 0 0.58 1;0.42 0 0.58 1;0.42 0 0.58 1;0.42 0 0.58 1;0.42 0 0.58 1;0.42 0 0.58 1"/>
        <animate attributeName="fill" values="#38106B;#28649C;#77159F;#38106B" dur="29s" repeatCount="indefinite"/>
      </circle>
      <circle r="165" fill="#28649C">
        <animate attributeName="cx" values="751;733;794;737;708;751;639;751" dur="41s" repeatCount="indefinite" calcMode="spline" keyTimes="0.0000;0.1429;0.2857;0.4286;0.5714;0.7143;0.8571;1.0000" keySplines="0.42 0 0.58 1;0.42 0 0.58 1;0.42 0 0.58 1;0.42 0 0.58 1;0.42 0 0.58 1;0.42 0 0.58 1;0.42 0 0.58 1"/>
        <animate attributeName="cy" values="-24;103;48;23;-22;62;24;-24" dur="35s" repeatCount="indefinite" calcMode="spline" keyTimes="0.0000;0.1429;0.2857;0.4286;0.5714;0.7143;0.8571;1.0000" keySplines="0.42 0 0.58 1;0.42 0 0.58 1;0.42 0 0.58 1;0.42 0 0.58 1;0.42 0 0.58 1;0.42 0 0.58 1;0.42 0 0.58 1"/>
        <animate attributeName="fill" values="#28649C;#873AA8;#018AB8;#28649C" dur="33s" repeatCount="indefinite"/>
      </circle>
      <circle r="145" fill="#00EED0">
        <animate attributeName="cx" values="469;588;454;416;291;340;649;469" dur="47s" repeatCount="indefinite" calcMode="spline" keyTimes="0.0000;0.1429;0.2857;0.4286;0.5714;0.7143;0.8571;1.0000" keySplines="0.42 0 0.58 1;0.42 0 0.58 1;0.42 0 0.58 1;0.42 0 0.58 1;0.42 0 0.58 1;0.42 0 0.58 1;0.42 0 0.58 1"/>
        <animate attributeName="cy" values="19;9;18;126;36;19;16;19" dur="39s" repeatCount="indefinite" calcMode="spline" keyTimes="0.0000;0.1429;0.2857;0.4286;0.5714;0.7143;0.8571;1.0000" keySplines="0.42 0 0.58 1;0.42 0 0.58 1;0.42 0 0.58 1;0.42 0 0.58 1;0.42 0 0.58 1;0.42 0 0.58 1;0.42 0 0.58 1"/>
        <animate attributeName="fill" values="#00EED0;#018AB8;#28649C;#00EED0" dur="35s" repeatCount="indefinite"/>
      </circle>
      <circle r="150" fill="#F16428">
        <animate attributeName="cx" values="532;566;735;665;526;639;695;532" dur="39s" repeatCount="indefinite" calcMode="spline" keyTimes="0.0000;0.1429;0.2857;0.4286;0.5714;0.7143;0.8571;1.0000" keySplines="0.42 0 0.58 1;0.42 0 0.58 1;0.42 0 0.58 1;0.42 0 0.58 1;0.42 0 0.58 1;0.42 0 0.58 1;0.42 0 0.58 1"/>
        <animate attributeName="cy" values="78;39;95;45;34;105;88;78" dur="47s" repeatCount="indefinite" calcMode="spline" keyTimes="0.0000;0.1429;0.2857;0.4286;0.5714;0.7143;0.8571;1.0000" keySplines="0.42 0 0.58 1;0.42 0 0.58 1;0.42 0 0.58 1;0.42 0 0.58 1;0.42 0 0.58 1;0.42 0 0.58 1;0.42 0 0.58 1"/>
        <animate attributeName="fill" values="#F16428;#FF592B;#C28B5A;#F16428" dur="30s" repeatCount="indefinite"/>
      </circle>
    </g>
  </defs>
  <g mask="url(#m)">
    <g transform="scale(0.5675,0.5111)">
      <g filter="url(#b)" transform="translate(0,90) scale(1,-1)"><use href="#bl"/></g>
    </g>
  </g>
</svg>