<svg viewBox="136 0 24 24" width="46" height="46" xmlns="http://www.w3.org/2000/svg" role="img" aria-label="Python">
  <defs>
    <filter id="b" x="-60%" y="-60%" width="220%" height="220%"><feGaussianBlur stdDeviation="54"/></filter>
    <clipPath id="cp">
      <path transform="translate(136,0)" d="M14.25.18l.9.2.73.26.59.3.45.32.34.34.25.34.16.33.1.3.04.26.02.2-.01.13V8.5l-.05.63-.13.55-.21.46-.26.38-.3.31-.33.25-.35.19-.35.14-.33.1-.3.07-.26.04-.21.02H8.77l-.69.05-.59.14-.5.22-.41.27-.33.32-.27.35-.2.36-.15.37-.1.35-.07.32-.04.27-.02.21v3.06H3.17l-.21-.03-.28-.07-.32-.12-.35-.18-.36-.26-.36-.36-.35-.46-.32-.59-.28-.73-.21-.88-.14-1.05-.05-1.23.06-1.22.16-1.04.24-.87.32-.71.36-.57.4-.44.42-.33.42-.24.4-.16.36-.1.32-.05.24-.01h.16l.06.01h8.16v-.83H6.18l-.01-2.75-.02-.37.05-.34.11-.31.17-.28.25-.26.31-.23.38-.2.44-.18.51-.15.58-.12.64-.1.71-.06.77-.04.84-.02 1.27.05zm-6.3 1.98l-.23.33-.08.41.08.41.23.34.33.22.41.09.41-.09.33-.22.23-.34.08-.41-.08-.41-.23-.33-.33-.22-.41-.09-.41.09zm13.09 3.95l.28.06.32.12.35.18.36.27.36.35.35.47.32.59.28.73.21.88.14 1.04.05 1.23-.06 1.23-.16 1.04-.24.86-.32.71-.36.57-.4.45-.42.33-.42.24-.4.16-.36.09-.32.05-.24.02-.16-.01h-8.22v.82h5.84l.01 2.76.02.36-.05.34-.11.31-.17.29-.25.25-.31.24-.38.2-.44.17-.51.15-.58.13-.64.09-.71.07-.77.04-.84.01-1.27-.04-1.07-.14-.9-.2-.73-.25-.59-.3-.45-.33-.34-.34-.25-.34-.16-.33-.1-.3-.04-.25-.02-.2.01-.13v-5.34l.05-.64.13-.54.21-.46.26-.38.3-.32.33-.24.35-.2.35-.14.33-.1.3-.06.26-.04.21-.02.13-.01h5.84l.69-.05.59-.14.5-.21.41-.28.33-.32.27-.35.2-.36.15-.36.1-.35.07-.32.04-.28.02-.21V6.07h2.09l.14.01zm-6.47 14.25l-.23.33-.08.41.08.41.23.33.33.23.41.08.41-.08.33-.23.23-.33.08-.41-.08-.41-.23-.33-.33-.23-.41-.08-.41.08z"/>
    </clipPath>
    <g id="bl">
      <circle r="165" fill="#FF592B">
        <animate attributeName="cx" values="87;219;102;12;136;-14;-15;87" dur="31s" repeatCount="indefinite" calcMode="spline" keyTimes="0.0000;0.1429;0.2857;0.4286;0.5714;0.7143;0.8571;1.0000" keySplines="0.42 0 0.58 1;0.42 0 0.58 1;0.42 0 0.58 1;0.42 0 0.58 1;0.42 0 0.58 1;0.42 0 0.58 1;0.42 0 0.58 1"/>
        <animate attributeName="cy" values="55;39;60;47;95;12;98;55" dur="39s" repeatCount="indefinite" calcMode="spline" keyTimes="0.0000;0.1429;0.2857;0.4286;0.5714;0.7143;0.8571;1.0000" keySplines="0.42 0 0.58 1;0.42 0 0.58 1;0.42 0 0.58 1;0.42 0 0.58 1;0.42 0 0.58 1;0.42 0 0.58 1;0.42 0 0.58 1"/>
        <animate attributeName="fill" values="#FF592B;#F16428;#FF592B" dur="27s" repeatCount="indefinite"/>
      </circle>
      <circle r="160" fill="#77159F">
        <animate attributeName="cx" values="101;219;167;139;-33;162;95;101" dur="43s" repeatCount="indefinite" calcMode="spline" keyTimes="0.0000;0.1429;0.2857;0.4286;0.5714;0.7143;0.8571;1.0000" keySplines="0.42 0 0.58 1;0.42 0 0.58 1;0.42 0 0.58 1;0.42 0 0.58 1;0.42 0 0.58 1;0.42 0 0.58 1;0.42 0 0.58 1"/>
        <animate attributeName="cy" values="97;9;80;-21;25;3;14;97" dur="33s" repeatCount="indefinite" calcMode="spline" keyTimes="0.0000;0.1429;0.2857;0.4286;0.5714;0.7143;0.8571;1.0000" keySplines="0.42 0 0.58 1;0.42 0 0.58 1;0.42 0 0.58 1;0.42 0 0.58 1;0.42 0 0.58 1;0.42 0 0.58 1;0.42 0 0.58 1"/>
        <animate attributeName="fill" values="#77159F;#38106B;#873AA8;#77159F" dur="31s" repeatCount="indefinite"/>
      </circle>
      <circle r="155" fill="#38106B">
        <animate attributeName="cx" values="612;596;446;415;246;261;162;612" dur="37s" repeatCount="indefinite" calcMode="spline" keyTimes="0.0000;0.1429;0.2857;0.4286;0.5714;0.7143;0.8571;1.0000" keySplines="0.42 0 0.58 1;0.42 0 0.58 1;0.42 0 0.58 1;0.42 0 0.58 1;0.42 0 0.58 1;0.42 0 0.58 1;0.42 0 0.58 1"/>
        <animate attributeName="cy" values="121;-26;32;-18;36;37;-25;121" dur="45s" repeatCount="indefinite" calcMode="spline" keyTimes="0.0000;0.1429;0.2857;0.4286;0.5714;0.7143;0.8571;1.0000" keySplines="0.42 0 0.58 1;0.42 0 0.58 1;0.42 0 0.58 1;0.42 0 0.58 1;0.42 0 0.58 1;0.42 0 0.58 1;0.42 0 0.58 1"/>
        <animate attributeName="fill" values="#38106B;#28649C;#77159F;#38106B" dur="29s" repeatCount="indefinite"/>
      </circle>
      <circle r="165" fill="#28649C">
        <animate attributeName="cx" values="751;733;794;737;708;751;639;751" dur="41s" repeatCount="indefinite" calcMode="spline" keyTimes="0.0000;0.1429;0.2857;0.4286;0.5714;0.7143;0.8571;1.0000" keySplines="0.42 0 0.58 1;0.42 0 0.58 1;0.42 0 0.58 1;0.42 0 0.58 1;0.42 0 0.58 1;0.42 0 0.58 1;0.42 0 0.58 1"/>
        <animate attributeName="cy" values="-24;103;48;23;-22;62;24;-24" dur="35s" repeatCount="indefinite" calcMode="spline" keyTimes="0.0000;0.1429;0.2857;0.4286;0.5714;0.7143;0.8571;1.0000" keySplines="0.42 0 0.58 1;0.42 0 0.58 1;0.42 0 0.58 1;0.42 0 0.58 1;0.42 0 0.58 1;0.42 0 0.58 1;0.42 0 0.58 1"/>
        <animate attributeName="fill" values="#28649C;#873AA8;#018AB8;#28649C" dur="33s" repeatCount="indefinite"/>
      </circle>
      <circle r="145" fill="#00EED0">
        <animate attributeName="cx" values="469;588;454;416;291;340;649;469" dur="47s" repeatCount="indefinite" calcMode="spline" keyTimes="0.0000;0.1429;0.2857;0.4286;0.5714;0.7143;0.8571;1.0000" keySplines="0.42 0 0.58 1;0.42 0 0.58 1;0.42 0 0.58 1;0.42 0 0.58 1;0.42 0 0.58 1;0.42 0 0.58 1;0.42 0 0.58 1"/>
        <animate attributeName="cy" values="19;9;18;126;36;19;16;19" dur="39s" repeatCount="indefinite" calcMode="spline" keyTimes="0.0000;0.1429;0.2857;0.4286;0.5714;0.7143;0.8571;1.0000" keySplines="0.42 0 0.58 1;0.42 0 0.58 1;0.42 0 0.58 1;0.42 0 0.58 1;0.42 0 0.58 1;0.42 0 0.58 1;0.42 0 0.58 1"/>
        <animate attributeName="fill" values="#00EED0;#018AB8;#28649C;#00EED0" dur="35s" repeatCount="indefinite"/>
      </circle>
      <circle r="150" fill="#F16428">
        <animate attributeName="cx" values="532;566;735;665;526;639;695;532" dur="39s" repeatCount="indefinite" calcMode="spline" keyTimes="0.0000;0.1429;0.2857;0.4286;0.5714;0.7143;0.8571;1.0000" keySplines="0.42 0 0.58 1;0.42 0 0.58 1;0.42 0 0.58 1;0.42 0 0.58 1;0.42 0 0.58 1;0.42 0 0.58 1;0.42 0 0.58 1"/>
        <animate attributeName="cy" values="78;39;95;45;34;105;88;78" dur="47s" repeatCount="indefinite" calcMode="spline" keyTimes="0.0000;0.1429;0.2857;0.4286;0.5714;0.7143;0.8571;1.0000" keySplines="0.42 0 0.58 1;0.42 0 0.58 1;0.42 0 0.58 1;0.42 0 0.58 1;0.42 0 0.58 1;0.42 0 0.58 1;0.42 0 0.58 1"/>
        <animate attributeName="fill" values="#F16428;#FF592B;#C28B5A;#F16428" dur="30s" repeatCount="indefinite"/>
      </circle>
    </g>
  </defs>
  <g clip-path="url(#cp)">
    <g transform="scale(0.28500,0.26667)">
      <g filter="url(#b)" transform="translate(0,90) scale(1,-1)"><use href="#bl"/></g>
    </g>
  </g>
</svg>